<svg width="22" height="20" viewBox="0 0 22 20" fill="none" xmlns="http://www.w3.org/2000/svg">
<path d="M11.1036 18.3333C15.8984 18.3333 19.7854 14.6023 19.7854 9.99996C19.7854 5.39759 15.8984 1.66663 11.1036 1.66663C6.30882 1.66663 2.42188 5.39759 2.42188 9.99996C2.42188 14.6023 6.30882 18.3333 11.1036 18.3333Z" stroke="#0FAFE9" stroke-linecap="round" stroke-linejoin="round"/>
<path d="M11.1035 14.1666H11.1122" stroke="#0FAFE9" stroke-linecap="round" stroke-linejoin="round"/>
<path d="M8.57715 7.49999C8.78126 6.94304 9.18413 6.47341 9.71442 6.17426C10.2447 5.87512 10.8682 5.76577 11.4744 5.86558C12.0806 5.96539 12.6305 6.26792 13.0266 6.71959C13.4227 7.17126 13.6395 7.74292 13.6386 8.33332C13.6386 9.99999 11.0341 10.8333 11.0341 10.8333" stroke="#0FAFE9" stroke-linecap="round" stroke-linejoin="round"/>
</svg>
