<svg width="17" height="30" viewBox="0 0 17 30" fill="none" xmlns="http://www.w3.org/2000/svg">
<path d="M12.1213 8.78412C9.92256 8.78412 8.09473 6.99739 8.09473 4.79025C8.09473 2.60939 9.89607 0.796387 12.1213 0.796387C14.32 0.796387 16.1478 2.58312 16.1478 4.79025C16.1478 6.99739 14.3465 8.78412 12.1213 8.78412Z" fill="#0FAFE9"/>
<path d="M0 21.7667C0 26.181 3.62918 29.807 8.07957 29.807C12.5299 29.807 16.1591 26.2072 16.1591 21.793V10.0479C16.1856 10.0479 0 11.8346 0 21.7667ZM8.07957 23.895C6.91399 23.895 5.96034 22.9491 5.96034 21.793C5.96034 20.6369 6.91399 19.6909 8.07957 19.6909C9.24514 19.6909 10.1988 20.6369 10.1988 21.793C10.2253 22.9491 9.27163 23.895 8.07957 23.895Z" fill="#0FAFE9"/>
</svg>
