<svg width="76" height="76" viewBox="0 0 76 76" fill="none" xmlns="http://www.w3.org/2000/svg">
<path d="M66.5 31.6667C66.5 53.8334 38 72.8334 38 72.8334C38 72.8334 9.5 53.8334 9.5 31.6667C9.5 24.1081 12.5027 16.859 17.8475 11.5142C23.1922 6.16942 30.4413 3.16675 38 3.16675C45.5587 3.16675 52.8078 6.16942 58.1525 11.5142C63.4973 16.859 66.5 24.1081 66.5 31.6667Z" stroke="#0FAFE9" stroke-width="4" stroke-linecap="round" stroke-linejoin="round"/>
<path d="M38 41.1667C43.2467 41.1667 47.5 36.9135 47.5 31.6667C47.5 26.42 43.2467 22.1667 38 22.1667C32.7533 22.1667 28.5 26.42 28.5 31.6667C28.5 36.9135 32.7533 41.1667 38 41.1667Z" stroke="#0FAFE9" stroke-width="4" stroke-linecap="round" stroke-linejoin="round"/>
</svg>
