<svg width="76" height="76" viewBox="0 0 76 76" fill="none" xmlns="http://www.w3.org/2000/svg">
<path d="M19 6.33325L9.5 18.9999V63.3333C9.5 65.013 10.1673 66.6239 11.355 67.8116C12.5427 68.9993 14.1536 69.6666 15.8333 69.6666H60.1667C61.8464 69.6666 63.4573 68.9993 64.645 67.8116C65.8327 66.6239 66.5 65.013 66.5 63.3333V18.9999L57 6.33325H19Z" stroke="#0FAFE9" stroke-width="4" stroke-linecap="round" stroke-linejoin="round"/>
<path d="M9.5 19H66.5" stroke="#0FAFE9" stroke-width="4" stroke-linecap="round" stroke-linejoin="round"/>
<path d="M50.6668 31.6667C50.6668 35.0262 49.3323 38.248 46.9568 40.6234C44.5814 42.9989 41.3596 44.3334 38.0002 44.3334C34.6408 44.3334 31.4189 42.9989 29.0435 40.6234C26.668 38.248 25.3335 35.0262 25.3335 31.6667" stroke="#0FAFE9" stroke-width="4" stroke-linecap="round" stroke-linejoin="round"/>
</svg>
